<?xml version="1.0" encoding="UTF-8" standalone="no"?>
<!-- Created with Inkscape (http://www.inkscape.org/) -->

<svg
   width="50mm"
   height="50.000004mm"
   viewBox="0 0 50 50.000004"
   version="1.1"
   id="svg1"
   inkscape:version="1.4 (86a8ad7, 2024-10-11)"
   sodipodi:docname="方点科技_中文.svg"
   inkscape:export-filename="..\rectC.png"
   inkscape:export-xdpi="300"
   inkscape:export-ydpi="300"
   xmlns:inkscape="http://www.inkscape.org/namespaces/inkscape"
   xmlns:sodipodi="http://sodipodi.sourceforge.net/DTD/sodipodi-0.dtd"
   xmlns="http://www.w3.org/2000/svg"
   xmlns:svg="http://www.w3.org/2000/svg">
  <sodipodi:namedview
     id="namedview1"
     pagecolor="#ffffff"
     bordercolor="#000000"
     borderopacity="1"
     inkscape:showpageshadow="0"
     inkscape:pageopacity="0"
     inkscape:pagecheckerboard="0"
     inkscape:deskcolor="#505050"
     inkscape:document-units="mm"
     inkscape:export-bgcolor="#ffffff00"
     inkscape:zoom="4.1585018"
     inkscape:cx="80.437623"
     inkscape:cy="98.953907"
     inkscape:window-width="2560"
     inkscape:window-height="1369"
     inkscape:window-x="-8"
     inkscape:window-y="-8"
     inkscape:window-maximized="1"
     inkscape:current-layer="g1"
     showgrid="false">
    <inkscape:page
       x="0"
       y="0"
       width="50"
       height="50.000004"
       id="page2"
       margin="0"
       bleed="0" />
  </sodipodi:namedview>
  <defs
     id="defs1" />
  <g
     inkscape:groupmode="layer"
     id="layer2"
     inkscape:label="图层 2"
     transform="translate(-20.695143,-212.1702)">
    <rect
       style="fill:none;fill-opacity:1;stroke-width:2;stroke-dasharray:4, 2"
       id="rect1"
       width="50"
       height="50"
       x="20.695143"
       y="212.1702"
       ry="1"
       inkscape:export-filename="rect1.png"
       inkscape:export-xdpi="300"
       inkscape:export-ydpi="300" />
  </g>
  <g
     inkscape:label="图层 1"
     inkscape:groupmode="layer"
     id="layer1"
     transform="translate(-20.695143,-212.1702)">
    <g
       id="g1"
       transform="translate(-20.977585,-17.957324)">
      <g
         id="g7"
         style="display:inline;fill:#000000;fill-opacity:1"
         transform="translate(0.01425947)">
        <path
           id="rect2-2-4-3-3-5-6"
           style="fill:#000000;fill-opacity:1;stroke-width:2;stroke-dasharray:4, 2"
           d="m -212.98349,-118.69398 c 0.54225,-0.54225 0.87661,-1.29238 0.87661,-2.12338 v -18.99974 c 0,-1.662 -1.33799,-2.99999 -2.99999,-2.99999 l -19.0001,-3.7e-4 c -0.26864,0 -0.52724,0.0382 -0.77467,0.10378 l 7.09293,7.09293 2.47491,-2.47491 c 0.39173,-0.39174 1.02239,-0.39174 1.41412,0 l 7.071,7.071 c 0.39174,0.39174 0.39174,1.02239 0,1.41413 l -7.07136,7.07137 c -0.39174,0.39173 -1.02239,0.39173 -1.41413,0 l -7.071,-7.07101 c -0.39174,-0.39173 -0.39174,-1.02239 0,-1.41412 l 2.4749,-2.47491 -7.09292,-7.09292 c -0.0656,0.24742 -0.10378,0.50602 -0.10378,0.77466 l 3.7e-4,19.0001 c 0,1.662 1.33799,2.99999 2.99999,2.99999 h 18.99974 c 0.831,0 1.58113,-0.33436 2.12338,-0.87661 z"
           transform="rotate(-135)" />
        <rect
           style="fill:#000000;fill-opacity:1;stroke-width:0.926139;stroke-dasharray:1.85229, 0.926139"
           id="rect3-6-9-8-0-9"
           width="3"
           height="3"
           x="65.172729"
           y="249.46933" />
      </g>
      <path
         d="m 47.446529,271.59158 -0.171253,0.61021 h 4.855039 v 0.41279 0.51149 2.38696 q 0,0.17948 -0.0685,0.33202 -0.05994,0.15256 -0.171253,0.26921 -0.10275,0.10769 -0.25688,0.17948 -0.145567,0.0629 -0.308257,0.0629 h -2.174922 l 0.291132,-0.82557 h 1.267277 q 0.11988,0 0.196941,-0.0807 0.07707,-0.0897 0.07707,-0.20639 v -2.11777 h -3.981647 l -0.933332,3.23049 h -1.173087 l 1.378591,-4.76497 h -1.378591 v -0.92426 h 3.219568 l -0.411008,-0.76277 h 1.275839 l 0.411009,0.76277 h 2.996937 v 0.92426 z m 12.698456,-1.66907 v 0.40381 h 4.033022 v 0.88837 h -4.033022 v 0.52047 h 4.358404 v 2.35107 q 0,0.1705 -0.06851,0.32307 -0.05994,0.15254 -0.171255,0.26919 -0.111315,0.11668 -0.265442,0.18845 -0.145565,0.0629 -0.308256,0.0629 h -6.559014 v -3.19459 h 1.686848 v -1.81266 z m 3.176754,2.69207 h -5.009168 v 1.42679 h 4.872165 q 0.05994,0 0.09419,-0.0359 0.04281,-0.0449 0.04281,-0.0987 z m -6.285007,3.73299 0.445259,-1.13963 h 1.31009 l -0.436696,1.13963 z m 2.114982,-1.13963 h 1.31009 l 0.445259,1.13963 h -1.31009 z m 1.832413,0 h 1.310091 l 0.436696,1.13963 h -1.31009 z m 3.142504,0 0.436698,1.13963 h -1.31009 l -0.436697,-1.13963 z m 5.094796,1.11272 0.171253,-3.82274 h 0.702141 l -0.171255,3.82274 z m 2.894185,-3.82274 0.162692,3.82274 h -0.702139 l -0.171254,-3.82274 z m 3.870333,1.43577 h 0.719265 v 0.80762 h -0.719265 v 1.57037 H 74.82142 v -1.57037 h -2.346174 v -0.80762 h 2.346174 v -3.99324 h 1.164525 z m -1.421404,-1.95624 H 73.95659 l 0.607951,1.54346 h -1.138839 l -0.753515,-1.92933 h 0.60795 l -0.60795,-1.54345 h 1.130274 z m -3.382261,-1.16657 v 0.6461 h 1.061773 v 0.77174 H 71.18228 v 4.09194 h -0.899081 v -4.09194 h -1.070334 v -0.77174 h 1.070334 v -0.61918 l -0.984708,0.0359 v -0.8166 l 2.979813,-0.0987 v 0.8166 z m 17.502123,2.12675 q -0.09419,0.39482 -0.4367,0.89734 -0.342505,0.50252 -0.847704,0.9871 0.359632,0.26023 0.736391,0.46662 0.385319,0.2064 0.753515,0.28716 v 0.82557 q -0.548012,-0.0629 -1.113147,-0.32305 -0.556575,-0.26921 -1.070339,-0.66405 -0.513758,0.39484 -1.078896,0.66405 -0.565136,0.26023 -1.113148,0.32305 v -0.82557 q 0.368196,-0.0807 0.744952,-0.28716 0.385322,-0.20639 0.744954,-0.46662 -0.428133,-0.41277 -0.744954,-0.83454 -0.308256,-0.43073 -0.453821,-0.80762 h 0.976146 q 0.128445,0.20639 0.368195,0.48457 0.239753,0.26921 0.556572,0.56533 0.436699,-0.41278 0.719265,-0.77172 0.28257,-0.36792 0.325384,-0.52046 H 84.71988 v -0.82557 h 1.41284 v -0.69098 h -1.41284 v -0.82556 h 1.41284 v -0.69096 h 1.044649 v 0.69096 h 1.507034 v 0.82556 h -1.507034 v 0.69098 h 1.507034 z m -5.129048,-1.6332 v 0.77172 h 1.181649 l -1.181649,1.58833 v 1.75882 q 0,0.20639 -0.07707,0.38586 -0.0685,0.1705 -0.19694,0.3051 -0.128445,0.13465 -0.299695,0.21537 -0.171253,0.0718 -0.368195,0.0718 h -0.890519 l 0.333944,-0.77173 h 0.13701 q 0.111315,0 0.188378,-0.0807 0.07707,-0.0807 0.07707,-0.19742 v -0.52943 h -1.104585 l 1.104585,-1.48064 v -2.037 h -0.907643 v -0.88839 h 0.907636 v -0.54738 h 1.096024 v 0.54738 h 0.95902 v 0.88839 z"
         id="text1"
         style="font-size:17.1981px;line-height:1.25;font-family:PangMenZhengDao;-inkscape-font-specification:'PangMenZhengDao @opsz=36';font-variation-settings:'opsz' 36;white-space:pre;fill:#000000;fill-opacity:1;stroke-width:0.509691"
         aria-label="方 点 科 技" />
    </g>
  </g>
</svg>
