<?xml version="1.0" encoding="UTF-8" standalone="no"?>
<!-- Created with Inkscape (http://www.inkscape.org/) -->

<svg
   width="50mm"
   height="50.000004mm"
   viewBox="0 0 50 50.000004"
   version="1.1"
   id="svg1"
   inkscape:version="1.4 (86a8ad7, 2024-10-11)"
   sodipodi:docname="方点科技_英文.svg"
   inkscape:export-filename="C:\Users\yun\Desktop\rectT_white.png"
   inkscape:export-xdpi="300"
   inkscape:export-ydpi="300"
   xmlns:inkscape="http://www.inkscape.org/namespaces/inkscape"
   xmlns:sodipodi="http://sodipodi.sourceforge.net/DTD/sodipodi-0.dtd"
   xmlns="http://www.w3.org/2000/svg"
   xmlns:svg="http://www.w3.org/2000/svg">
  <sodipodi:namedview
     id="namedview1"
     pagecolor="#ffffff"
     bordercolor="#000000"
     borderopacity="1"
     inkscape:showpageshadow="0"
     inkscape:pageopacity="0"
     inkscape:pagecheckerboard="0"
     inkscape:deskcolor="#505050"
     inkscape:document-units="mm"
     inkscape:export-bgcolor="#ffffff00"
     inkscape:zoom="4.1585018"
     inkscape:cx="86.208932"
     inkscape:cy="107.12993"
     inkscape:window-width="2560"
     inkscape:window-height="1369"
     inkscape:window-x="-8"
     inkscape:window-y="-8"
     inkscape:window-maximized="1"
     inkscape:current-layer="layer1"
     showgrid="false">
    <inkscape:page
       x="0"
       y="0"
       width="50"
       height="50.000004"
       id="page2"
       margin="0"
       bleed="0" />
  </sodipodi:namedview>
  <defs
     id="defs1">
    <rect
       x="166.97813"
       y="584.59351"
       width="202.68629"
       height="46.590641"
       id="rect5-9" />
  </defs>
  <g
     inkscape:label="图层 1"
     inkscape:groupmode="layer"
     id="layer1"
     transform="translate(-20.695143,-212.1702)">
    <g
       id="g1"
       transform="translate(-20.977585,-17.957324)"
       style="fill:#000000;fill-opacity:1">
      <g
         id="g7"
         style="display:inline;fill:#000000;fill-opacity:1">
        <path
           id="rect2-2-4-3-3-5-6"
           style="fill:#000000;fill-opacity:1;stroke-width:2;stroke-dasharray:4, 2"
           d="m -212.98349,-118.69398 c 0.54225,-0.54225 0.87661,-1.29238 0.87661,-2.12338 v -18.99974 c 0,-1.662 -1.33799,-2.99999 -2.99999,-2.99999 l -19.0001,-3.7e-4 c -0.26864,0 -0.52724,0.0382 -0.77467,0.10378 l 7.09293,7.09293 2.47491,-2.47491 c 0.39173,-0.39174 1.02239,-0.39174 1.41412,0 l 7.071,7.071 c 0.39174,0.39174 0.39174,1.02239 0,1.41413 l -7.07136,7.07137 c -0.39174,0.39173 -1.02239,0.39173 -1.41413,0 l -7.071,-7.07101 c -0.39174,-0.39173 -0.39174,-1.02239 0,-1.41412 l 2.4749,-2.47491 -7.09292,-7.09292 c -0.0656,0.24742 -0.10378,0.50602 -0.10378,0.77466 l 3.7e-4,19.0001 c 0,1.662 1.33799,2.99999 2.99999,2.99999 h 18.99974 c 0.831,0 1.58113,-0.33436 2.12338,-0.87661 z"
           transform="rotate(-135)" />
        <rect
           style="fill:#000000;fill-opacity:1;stroke-width:0.926139;stroke-dasharray:1.85229, 0.926139"
           id="rect3-6-9-8-0-9"
           width="3"
           height="3"
           x="65.172729"
           y="249.46933" />
      </g>
      <path
         style="font-size:32px;line-height:1.25;font-family:'Gemunu Libre ExtraBold';-inkscape-font-specification:'Gemunu Libre ExtraBold, Normal';white-space:pre;display:inline;fill:#000000;fill-opacity:1"
         d="m 172.94727,600.60255 q -0.40625,-0.0625 -0.4375,-0.4375 v -2.875 q 0.0625,-0.40625 0.4375,-0.4375 h 7.8125 v -4.03125 l -7.15625,-0.15625 q -4.15625,-0.0937 -5.375,2.875 -0.40625,1.03125 -0.40625,2.28125 v 1.71875 q 0,3.71875 3.15625,4.84375 1.15625,0.40625 2.625,0.40625 h 2.78125 q 0.40625,0.0625 0.4375,0.4375 v 2.96875 q -0.0625,0.40625 -0.4375,0.4375 h -8.0625 v 4.03125 l 7.40625,0.15625 q 4.15625,0.0937 5.375,-2.875 0.40625,-1.03125 0.40625,-2.28125 v -1.8125 q 0,-3.71875 -3.15625,-4.84375 -1.15625,-0.40625 -2.625,-0.40625 z m 15.28125,-3.34375 q -3.28125,-0.0312 -4.1875,1.625 -0.5,0.9375 -0.5,2.59375 v 7.59375 q 0,3 2.15625,3.65625 0.8125,0.25 1.90625,0.25 h 0.78125 q 2.53125,-0.0312 3.03125,-2.34375 v 7.96875 h 4.46875 v -21.25 z m 3.1875,11.6875 q -0.0625,0.40625 -0.4375,0.4375 h -2.625 q -0.40625,-0.0625 -0.4375,-0.4375 v -7.5 q 0.0625,-0.40625 0.4375,-0.4375 h 3.0625 z m 12.15625,4.03125 q 2.75,-0.0625 3.125,-2.75 l 0.3125,2.4375 h 4.03125 l -0.0625,-15.3125 h -4.4375 l 0.0625,12.03125 h -3.03125 q -0.40625,-0.0625 -0.4375,-0.4375 v -11.59375 h -4.4375 v 11.71875 q 0,3 2.15625,3.65625 0.8125,0.25 1.90625,0.25 z m 17.34375,-3.59375 h -2.71875 q -0.40625,-0.0625 -0.4375,-0.4375 v -2.03125 q 0.0625,-0.40625 0.4375,-0.4375 h 2.71875 z m -3,3.59375 q 2.71875,-0.0625 3.09375,-2.75 l 0.3125,2.4375 h 4.0625 V 601.8213 q 0,-3.28125 -2.1875,-4.15625 -1.03125,-0.375 -2.65625,-0.375 l -6.03125,0.0312 v 3.75 l 5.96875,-0.0312 q 0.40625,0.0625 0.4375,0.4375 v 1.875 h -2.84375 q -3.25,0 -4.15625,1.59375 -0.53125,0.9375 -0.53125,2.625 v 1.5 q 0,3 2.15625,3.65625 0.8125,0.25 1.90625,0.25 z m 17.84375,-21.40625 v 5.6875 h -3.1875 q -3.25,0 -4.15625,1.59375 -0.53125,0.9375 -0.53125,2.625 v 7.59375 q 0,3 2.15625,3.65625 0.8125,0.25 1.90625,0.25 h 0.78125 q 2.71875,0 3.09375,-2.75 0.0312,-0.0937 0.0312,-0.15625 l 0.34375,2.59375 h 4.03125 V 591.5713 Z m 0,17.375 q -0.0625,0.40625 -0.4375,0.4375 h -2.625 q -0.40625,-0.0625 -0.4375,-0.4375 v -7.65625 q 0.0625,-0.40625 0.4375,-0.4375 h 3.0625 z m 14.8125,-8.15625 q 0.40625,0.0625 0.4375,0.4375 v 7.5625 q -0.0625,0.40625 -0.4375,0.4375 h -2.625 q -0.40625,-0.0625 -0.4375,-0.4375 v -7.5625 q 0.0625,-0.40625 0.4375,-0.4375 z m -7.53125,7.5 q 0,3.46875 2.59375,4.3125 1.125,0.375 2.71875,0.375 h 1.8125 q 4.03125,0 4.96875,-2.4375 0.34375,-0.9375 0.34375,-2.25 v -6.5625 q 0,-3.46875 -2.59375,-4.3125 -1.09375,-0.375 -2.71875,-0.375 h -1.8125 q -4.03125,0 -4.96875,2.4375 -0.34375,0.9375 -0.34375,2.25 z m 23.8125,-10.9375 h -3.4375 v -3.90625 h -4.4375 v 3.90625 h -1.5625 v 3.4375 h 1.5625 v 7.1875 q 0,3.46875 2.59375,4.3125 1.125,0.375 2.71875,0.375 h 2.5625 v -3.75 h -3 q -0.40625,-0.0625 -0.4375,-0.4375 v -7.6875 h 3.4375 z m 15.8125,15.3125 v -15.8125 h 4.5 v -4.03125 h -13.625 v 4.03125 h 4.5 v 15.8125 z m 16.46875,0.1875 v -3.75 h -6.625 q -0.40625,-0.0625 -0.4375,-0.4375 v -1.6875 h 7.53125 v -5.5625 q 0,-2.96875 -1.65625,-3.84375 -1.0625,-0.53125 -3.03125,-0.53125 h -2.59375 q -3.1875,0 -4.125,1.5625 -0.5625,1 -0.5625,2.8125 v 6.75 q 0,3.46875 2.59375,4.3125 1.125,0.375 2.71875,0.375 z m -7.0625,-11.78125 q 0.0625,-0.40625 0.4375,-0.4375 h 2.28125 q 0.40625,0.0625 0.4375,0.4375 v 2.78125 h -3.15625 z m 19.75,11.90625 v -3.75 h -4.96875 q -0.40625,-0.0625 -0.4375,-0.4375 v -7.5625 q 0.0625,-0.40625 0.4375,-0.4375 h 4.96875 v -3.75 h -4.5625 q -4.03125,0 -4.96875,2.4375 -0.34375,0.9375 -0.34375,2.25 v 6.5625 q 0,3.46875 2.59375,4.3125 1.125,0.375 2.71875,0.375 z"
         id="text4-7"
         transform="matrix(0.26458333,0,0,0.26458333,3.2197551,112.05155)"
         aria-label="Squadot Tec" />
    </g>
  </g>
</svg>
